<!DOCTYPE svg PUBLIC "-//W3C//DTD SVG 20001102//EN" "http://www.w3.org/TR/2000/CR-SVG-20001102/DTD/svg-20001102.dtd"
><svg xmlns="http://www.w3.org/2000/svg">
  <title>(null)</title>
  <desc>Automatically generated UML diagram</desc>
  <rect x="456" y="29" width="112" height="66" fill="#ffffff" stroke="black" stroke-width="2"/>
  <text x="463" y="46" style="fill:black; stroke:none; font-size:12;">
    Layout
  </text>
  <text x="463" y="61" style="fill:black; stroke:none; font-size:10;">
     Name:title
  </text>
  <line x1="463" y1="124" x2="70" y2="124" style="stroke:rgb(99,99,99);stroke-width:2" />  <text x="249" y="120" style="fill:black; stroke:none; font-size:10;">
    pairs
  </text>
  <text x="228" y="135" style="fill:black; stroke:none; font-size:10;">
    LinkedList1
  </text>
  <line x1="529" y1="124" x2="568" y2="124" style="stroke:rgb(99,99,99);stroke-width:2" />  <text x="527" y="120" style="fill:black; stroke:none; font-size:10;">
    groups
  </text>
  <text x="510" y="135" style="fill:black; stroke:none; font-size:10;">
    LinkedList1
  </text>
  <line x1="503" y1="143" x2="302" y2="143" style="stroke:rgb(99,99,99);stroke-width:2" />  <text x="378" y="139" style="fill:black; stroke:none; font-size:10;">
    ndIndex
  </text>
  <text x="346" y="154" style="fill:black; stroke:none; font-size:10;">
    IndexedLinkArray
  </text>
  <line x1="539" y1="143" x2="687" y2="143" style="stroke:rgb(99,99,99);stroke-width:2" />  <text x="599" y="139" style="fill:black; stroke:none; font-size:10;">
    nets
  </text>
  <text x="578" y="154" style="fill:black; stroke:none; font-size:10;">
    Aggregate2
  </text>
  <line x1="493" y1="162" x2="324" y2="162" style="stroke:rgb(99,99,99);stroke-width:2" />  <text x="370" y="158" style="fill:black; stroke:none; font-size:10;">
    newLayerArr
  </text>
  <text x="377" y="173" style="fill:black; stroke:none; font-size:10;">
    LinkArray
  </text>
  <line x1="559" y1="162" x2="934" y2="162" style="stroke:rgb(99,99,99);stroke-width:2" />  <text x="729" y="158" style="fill:black; stroke:none; font-size:10;">
    edges
  </text>
  <text x="708" y="173" style="fill:black; stroke:none; font-size:10;">
    LinkedList1
  </text>
  <line x1="473" y1="181" x2="368" y2="181" style="stroke:rgb(99,99,99);stroke-width:2" />  <text x="403" y="177" style="fill:black; stroke:none; font-size:10;">
    nodes
  </text>
  <text x="382" y="192" style="fill:black; stroke:none; font-size:10;">
    LinkedList1
  </text>
  <line x1="549" y1="181" x2="971" y2="181" style="stroke:rgb(99,99,99);stroke-width:2" />  <text x="729" y="177" style="fill:black; stroke:none; font-size:10;">
    selectArr
  </text>
  <text x="729" y="192" style="fill:black; stroke:none; font-size:10;">
    LinkArray
  </text>
  <line x1="483" y1="200" x2="346" y2="200" style="stroke:rgb(99,99,99);stroke-width:2" />  <text x="400" y="196" style="fill:black; stroke:none; font-size:10;">
    root
  </text>
  <text x="379" y="211" style="fill:black; stroke:none; font-size:10;">
    SingleLink
  </text>
  <line x1="513" y1="219" x2="455" y2="219" style="stroke:rgb(99,99,99);stroke-width:2" />  <text x="456" y="215" style="fill:black; stroke:none; font-size:10;">
    trackArr
  </text>
  <text x="428" y="230" style="fill:black; stroke:none; font-size:10;">
    IndexedLinkArray
  </text>
  <line x1="463" y1="124" x2="463" y2="95" style="stroke:rgb(99,99,99);stroke-width:2" />  <text x="467" y="106" style="fill:black; stroke:none; font-size:10;">
    1
  </text>
  <line x1="483" y1="200" x2="483" y2="95" style="stroke:rgb(99,99,99);stroke-width:2" />  <text x="487" y="106" style="fill:black; stroke:none; font-size:10;">
    1
  </text>
  <line x1="503" y1="143" x2="503" y2="95" style="stroke:rgb(99,99,99);stroke-width:2" />  <text x="507" y="106" style="fill:black; stroke:none; font-size:10;">
    1
  </text>
  <line x1="493" y1="162" x2="493" y2="95" style="stroke:rgb(99,99,99);stroke-width:2" />  <text x="497" y="106" style="fill:black; stroke:none; font-size:10;">
    1
  </text>
  <line x1="473" y1="181" x2="473" y2="95" style="stroke:rgb(99,99,99);stroke-width:2" />  <text x="477" y="106" style="fill:black; stroke:none; font-size:10;">
    1
  </text>
  <line x1="513" y1="219" x2="513" y2="95" style="stroke:rgb(99,99,99);stroke-width:2" />  <text x="517" y="106" style="fill:black; stroke:none; font-size:10;">
    1
  </text>
  <line x1="529" y1="124" x2="529" y2="95" style="stroke:rgb(99,99,99);stroke-width:2" />  <text x="533" y="106" style="fill:black; stroke:none; font-size:10;">
    1
  </text>
  <line x1="539" y1="143" x2="539" y2="95" style="stroke:rgb(99,99,99);stroke-width:2" />  <text x="543" y="106" style="fill:black; stroke:none; font-size:10;">
    1
  </text>
  <line x1="549" y1="181" x2="549" y2="95" style="stroke:rgb(99,99,99);stroke-width:2" />  <text x="553" y="106" style="fill:black; stroke:none; font-size:10;">
    1
  </text>
  <line x1="559" y1="162" x2="559" y2="95" style="stroke:rgb(99,99,99);stroke-width:2" />  <text x="563" y="106" style="fill:black; stroke:none; font-size:10;">
    1
  </text>
  <line x1="70" y1="124" x2="70" y2="248" style="stroke:rgb(99,99,99);stroke-width:2" />  <line x1="70" y1="248" x2="66" y2="241" style="stroke:rgb(99,99,99);stroke-width:2" />  <line x1="70" y1="248" x2="74" y2="241" style="stroke:rgb(99,99,99);stroke-width:2" />  <text x="74" y="244" style="fill:black; stroke:none; font-size:10;">
    *
  </text>
  <line x1="346" y1="200" x2="346" y2="248" style="stroke:rgb(99,99,99);stroke-width:2" />  <line x1="346" y1="248" x2="342" y2="241" style="stroke:rgb(99,99,99);stroke-width:2" />  <line x1="346" y1="248" x2="350" y2="241" style="stroke:rgb(99,99,99);stroke-width:2" />  <text x="350" y="244" style="fill:black; stroke:none; font-size:10;">
    1
  </text>
  <line x1="302" y1="143" x2="302" y2="248" style="stroke:rgb(99,99,99);stroke-width:2" />  <text x="306" y="244" style="fill:black; stroke:none; font-size:10;">
    *
  </text>
  <line x1="324" y1="162" x2="324" y2="248" style="stroke:rgb(99,99,99);stroke-width:2" />  <line x1="324" y1="248" x2="320" y2="241" style="stroke:rgb(99,99,99);stroke-width:2" />  <line x1="324" y1="248" x2="328" y2="241" style="stroke:rgb(99,99,99);stroke-width:2" />  <text x="328" y="244" style="fill:black; stroke:none; font-size:10;">
    *
  </text>
  <line x1="368" y1="181" x2="368" y2="248" style="stroke:rgb(99,99,99);stroke-width:2" />  <line x1="368" y1="248" x2="364" y2="241" style="stroke:rgb(99,99,99);stroke-width:2" />  <line x1="368" y1="248" x2="372" y2="241" style="stroke:rgb(99,99,99);stroke-width:2" />  <text x="372" y="244" style="fill:black; stroke:none; font-size:10;">
    *
  </text>
  <line x1="455" y1="219" x2="455" y2="248" style="stroke:rgb(99,99,99);stroke-width:2" />  <text x="459" y="244" style="fill:black; stroke:none; font-size:10;">
    *
  </text>
  <line x1="568" y1="124" x2="568" y2="248" style="stroke:rgb(99,99,99);stroke-width:2" />  <line x1="568" y1="248" x2="564" y2="241" style="stroke:rgb(99,99,99);stroke-width:2" />  <line x1="568" y1="248" x2="572" y2="241" style="stroke:rgb(99,99,99);stroke-width:2" />  <text x="572" y="244" style="fill:black; stroke:none; font-size:10;">
    *
  </text>
  <line x1="687" y1="143" x2="687" y2="248" style="stroke:rgb(99,99,99);stroke-width:2" />  <text x="691" y="244" style="fill:black; stroke:none; font-size:10;">
    *
  </text>
  <line x1="971" y1="181" x2="971" y2="248" style="stroke:rgb(99,99,99);stroke-width:2" />  <line x1="971" y1="248" x2="967" y2="241" style="stroke:rgb(99,99,99);stroke-width:2" />  <line x1="971" y1="248" x2="975" y2="241" style="stroke:rgb(99,99,99);stroke-width:2" />  <text x="975" y="244" style="fill:black; stroke:none; font-size:10;">
    *
  </text>
  <line x1="934" y1="162" x2="934" y2="248" style="stroke:rgb(99,99,99);stroke-width:2" />  <line x1="934" y1="248" x2="930" y2="241" style="stroke:rgb(99,99,99);stroke-width:2" />  <line x1="934" y1="248" x2="938" y2="241" style="stroke:rgb(99,99,99);stroke-width:2" />  <text x="938" y="244" style="fill:black; stroke:none; font-size:10;">
    *
  </text>
  <rect x="11" y="248" width="112" height="66" fill="#ffffff" stroke="black" stroke-width="2"/>
  <text x="18" y="265" style="fill:black; stroke:none; font-size:12;">
    Pair
  </text>
  <rect x="277" y="248" width="112" height="66" fill="#ffffff" stroke="black" stroke-width="2"/>
  <text x="284" y="265" style="fill:black; stroke:none; font-size:12;">
    Node
  </text>
  <text x="284" y="280" style="fill:black; stroke:none; font-size:10;">
     Name:nodeName
  </text>
  <rect x="396" y="248" width="112" height="66" fill="#ffffff" stroke="black" stroke-width="2"/>
  <text x="403" y="265" style="fill:black; stroke:none; font-size:12;">
    Track
  </text>
  <rect x="515" y="248" width="112" height="66" fill="#ffffff" stroke="black" stroke-width="2"/>
  <text x="522" y="265" style="fill:black; stroke:none; font-size:12;">
    Group
  </text>
  <rect x="634" y="248" width="112" height="66" fill="#ffffff" stroke="black" stroke-width="2"/>
  <text x="641" y="265" style="fill:black; stroke:none; font-size:12;">
    Net
  </text>
  <rect x="900" y="248" width="112" height="66" fill="#ffffff" stroke="black" stroke-width="2"/>
  <text x="907" y="265" style="fill:black; stroke:none; font-size:12;">
    Edge
  </text>
  <text x="907" y="280" style="fill:black; stroke:none; font-size:10;">
     Name:edgeCode
  </text>
  <text x="907" y="295" style="fill:black; stroke:none; font-size:10;">
     Name:edgeID
  </text>
  <text x="907" y="310" style="fill:black; stroke:none; font-size:10;">
     Name:edgeType
  </text>
  <line x1="126" y1="272" x2="274" y2="272" style="stroke:rgb(99,99,99);stroke-width:2" />  <line x1="274" y1="272" x2="267" y2="276" style="stroke:rgb(99,99,99);stroke-width:2" />  <line x1="274" y1="272" x2="267" y2="268" style="stroke:rgb(99,99,99);stroke-width:2" />  <text x="176" y="268" style="fill:black; stroke:none; font-size:10;">
    inPair1
  </text>
  <text x="165" y="283" style="fill:black; stroke:none; font-size:10;">
    SingleLink
  </text>
  <text x="130" y="268" style="fill:black; stroke:none; font-size:10;">
    1
  </text>
  <text x="263" y="268" style="fill:black; stroke:none; font-size:10;">
    1
  </text>
  <line x1="749" y1="272" x2="897" y2="272" style="stroke:rgb(99,99,99);stroke-width:2" />  <text x="806" y="268" style="fill:black; stroke:none; font-size:10;">
    byNet
  </text>
  <text x="788" y="283" style="fill:black; stroke:none; font-size:10;">
    Aggregate2
  </text>
  <text x="753" y="268" style="fill:black; stroke:none; font-size:10;">
    1
  </text>
  <text x="886" y="268" style="fill:black; stroke:none; font-size:10;">
    *
  </text>
  <line x1="126" y1="291" x2="274" y2="291" style="stroke:rgb(99,99,99);stroke-width:2" />  <line x1="274" y1="291" x2="267" y2="295" style="stroke:rgb(99,99,99);stroke-width:2" />  <line x1="274" y1="291" x2="267" y2="287" style="stroke:rgb(99,99,99);stroke-width:2" />  <text x="176" y="287" style="fill:black; stroke:none; font-size:10;">
    inPair2
  </text>
  <text x="165" y="302" style="fill:black; stroke:none; font-size:10;">
    SingleLink
  </text>
  <text x="130" y="287" style="fill:black; stroke:none; font-size:10;">
    1
  </text>
  <text x="263" y="287" style="fill:black; stroke:none; font-size:10;">
    1
  </text>
  <line x1="319" y1="343" x2="263" y2="343" style="stroke:rgb(99,99,99);stroke-width:2" />  <text x="267" y="339" style="fill:black; stroke:none; font-size:10;">
    members
  </text>
  <text x="253" y="354" style="fill:black; stroke:none; font-size:10;">
    LinkedList1
  </text>
  <line x1="334" y1="343" x2="568" y2="343" style="stroke:rgb(99,99,99);stroke-width:2" />  <text x="427" y="339" style="fill:black; stroke:none; font-size:10;">
    myGroup
  </text>
  <text x="416" y="354" style="fill:black; stroke:none; font-size:10;">
    SingleLink
  </text>
  <line x1="289" y1="362" x2="292" y2="362" style="stroke:rgb(99,99,99);stroke-width:2" />  <text x="259" y="358" style="fill:black; stroke:none; font-size:10;">
    sameLayer
  </text>
  <text x="273" y="373" style="fill:black; stroke:none; font-size:10;">
    Ring1
  </text>
  <line x1="307" y1="362" x2="310" y2="362" style="stroke:rgb(99,99,99);stroke-width:2" />  <text x="284" y="358" style="fill:black; stroke:none; font-size:10;">
    firstTo
  </text>
  <text x="273" y="373" style="fill:black; stroke:none; font-size:10;">
    SingleLink
  </text>
  <line x1="705" y1="362" x2="343" y2="362" style="stroke:rgb(99,99,99);stroke-width:2" />  <text x="493" y="358" style="fill:black; stroke:none; font-size:10;">
    netSource
  </text>
  <text x="489" y="373" style="fill:black; stroke:none; font-size:10;">
    SingleLink
  </text>
  <line x1="668" y1="381" x2="352" y2="381" style="stroke:rgb(99,99,99);stroke-width:2" />  <text x="472" y="377" style="fill:black; stroke:none; font-size:10;">
    netRelation
  </text>
  <text x="475" y="392" style="fill:black; stroke:none; font-size:10;">
    SingleLink
  </text>
  <line x1="455" y1="400" x2="985" y2="400" style="stroke:rgb(99,99,99);stroke-width:2" />  <text x="696" y="396" style="fill:black; stroke:none; font-size:10;">
    byTrack
  </text>
  <text x="685" y="411" style="fill:black; stroke:none; font-size:10;">
    Aggregate2
  </text>
  <line x1="361" y1="419" x2="919" y2="419" style="stroke:rgb(99,99,99);stroke-width:2" />  <text x="616" y="415" style="fill:black; stroke:none; font-size:10;">
    sources
  </text>
  <text x="605" y="430" style="fill:black; stroke:none; font-size:10;">
    Aggregate2
  </text>
  <line x1="379" y1="438" x2="963" y2="438" style="stroke:rgb(99,99,99);stroke-width:2" />  <text x="654" y="434" style="fill:black; stroke:none; font-size:10;">
    trace
  </text>
  <text x="636" y="449" style="fill:black; stroke:none; font-size:10;">
    SingleLink
  </text>
  <line x1="370" y1="457" x2="941" y2="457" style="stroke:rgb(99,99,99);stroke-width:2" />  <text x="631" y="453" style="fill:black; stroke:none; font-size:10;">
    targets
  </text>
  <text x="620" y="468" style="fill:black; stroke:none; font-size:10;">
    Aggregate2
  </text>
  <line x1="307" y1="362" x2="307" y2="314" style="stroke:rgb(99,99,99);stroke-width:2" />  <text x="311" y="325" style="fill:black; stroke:none; font-size:10;">
    1
  </text>
  <line x1="310" y1="362" x2="310" y2="314" style="stroke:rgb(99,99,99);stroke-width:2" />  <line x1="310" y1="314" x2="314" y2="320" style="stroke:rgb(99,99,99);stroke-width:2" />  <line x1="310" y1="314" x2="306" y2="320" style="stroke:rgb(99,99,99);stroke-width:2" />  <text x="314" y="325" style="fill:black; stroke:none; font-size:10;">
    1
  </text>
  <line x1="289" y1="362" x2="289" y2="314" style="stroke:rgb(99,99,99);stroke-width:2" />  <text x="293" y="325" style="fill:black; stroke:none; font-size:10;">
    1
  </text>
  <line x1="292" y1="362" x2="292" y2="314" style="stroke:rgb(99,99,99);stroke-width:2" />  <line x1="292" y1="314" x2="296" y2="320" style="stroke:rgb(99,99,99);stroke-width:2" />  <line x1="292" y1="314" x2="288" y2="320" style="stroke:rgb(99,99,99);stroke-width:2" />  <text x="296" y="325" style="fill:black; stroke:none; font-size:10;">
    1
  </text>
  <line x1="319" y1="343" x2="319" y2="314" style="stroke:rgb(99,99,99);stroke-width:2" />  <text x="323" y="325" style="fill:black; stroke:none; font-size:10;">
    1
  </text>
  <line x1="334" y1="343" x2="334" y2="314" style="stroke:rgb(99,99,99);stroke-width:2" />  <text x="338" y="325" style="fill:black; stroke:none; font-size:10;">
    1
  </text>
  <line x1="568" y1="343" x2="568" y2="314" style="stroke:rgb(99,99,99);stroke-width:2" />  <line x1="568" y1="314" x2="572" y2="320" style="stroke:rgb(99,99,99);stroke-width:2" />  <line x1="568" y1="314" x2="564" y2="320" style="stroke:rgb(99,99,99);stroke-width:2" />  <text x="572" y="325" style="fill:black; stroke:none; font-size:10;">
    1
  </text>
  <line x1="705" y1="362" x2="705" y2="314" style="stroke:rgb(99,99,99);stroke-width:2" />  <text x="709" y="325" style="fill:black; stroke:none; font-size:10;">
    1
  </text>
  <line x1="343" y1="362" x2="343" y2="314" style="stroke:rgb(99,99,99);stroke-width:2" />  <line x1="343" y1="314" x2="347" y2="320" style="stroke:rgb(99,99,99);stroke-width:2" />  <line x1="343" y1="314" x2="339" y2="320" style="stroke:rgb(99,99,99);stroke-width:2" />  <text x="347" y="325" style="fill:black; stroke:none; font-size:10;">
    1
  </text>
  <line x1="668" y1="381" x2="668" y2="314" style="stroke:rgb(99,99,99);stroke-width:2" />  <text x="672" y="325" style="fill:black; stroke:none; font-size:10;">
    1
  </text>
  <line x1="352" y1="381" x2="352" y2="314" style="stroke:rgb(99,99,99);stroke-width:2" />  <line x1="352" y1="314" x2="356" y2="320" style="stroke:rgb(99,99,99);stroke-width:2" />  <line x1="352" y1="314" x2="348" y2="320" style="stroke:rgb(99,99,99);stroke-width:2" />  <text x="356" y="325" style="fill:black; stroke:none; font-size:10;">
    1
  </text>
  <line x1="370" y1="457" x2="370" y2="314" style="stroke:rgb(99,99,99);stroke-width:2" />  <text x="374" y="325" style="fill:black; stroke:none; font-size:10;">
    1
  </text>
  <line x1="941" y1="457" x2="941" y2="314" style="stroke:rgb(99,99,99);stroke-width:2" />  <text x="945" y="325" style="fill:black; stroke:none; font-size:10;">
    *
  </text>
  <line x1="361" y1="419" x2="361" y2="314" style="stroke:rgb(99,99,99);stroke-width:2" />  <text x="365" y="325" style="fill:black; stroke:none; font-size:10;">
    1
  </text>
  <line x1="919" y1="419" x2="919" y2="314" style="stroke:rgb(99,99,99);stroke-width:2" />  <text x="923" y="325" style="fill:black; stroke:none; font-size:10;">
    *
  </text>
  <line x1="379" y1="438" x2="379" y2="314" style="stroke:rgb(99,99,99);stroke-width:2" />  <text x="383" y="325" style="fill:black; stroke:none; font-size:10;">
    1
  </text>
  <line x1="963" y1="438" x2="963" y2="314" style="stroke:rgb(99,99,99);stroke-width:2" />  <line x1="963" y1="314" x2="967" y2="320" style="stroke:rgb(99,99,99);stroke-width:2" />  <line x1="963" y1="314" x2="959" y2="320" style="stroke:rgb(99,99,99);stroke-width:2" />  <text x="967" y="325" style="fill:black; stroke:none; font-size:10;">
    1
  </text>
  <line x1="455" y1="400" x2="455" y2="314" style="stroke:rgb(99,99,99);stroke-width:2" />  <text x="459" y="325" style="fill:black; stroke:none; font-size:10;">
    1
  </text>
  <line x1="985" y1="400" x2="985" y2="314" style="stroke:rgb(99,99,99);stroke-width:2" />  <text x="989" y="325" style="fill:black; stroke:none; font-size:10;">
    *
  </text>
  <line x1="263" y1="343" x2="263" y2="486" style="stroke:rgb(99,99,99);stroke-width:2" />  <line x1="263" y1="486" x2="259" y2="479" style="stroke:rgb(99,99,99);stroke-width:2" />  <line x1="263" y1="486" x2="267" y2="479" style="stroke:rgb(99,99,99);stroke-width:2" />  <text x="267" y="482" style="fill:black; stroke:none; font-size:10;">
    *
  </text>
  <rect x="204" y="486" width="112" height="66" fill="#ffffff" stroke="black" stroke-width="2"/>
  <text x="211" y="503" style="fill:black; stroke:none; font-size:12;">
    Member
  </text>
  <text x="211" y="518" style="fill:black; stroke:none; font-size:10;">
     Name:memberName
  </text>
</svg>
